<svg width="225" height="225" viewBox="0 0 225 225" fill="none" xmlns="http://www.w3.org/2000/svg">
<rect width="225" height="225" rx="28" fill="#009C49"/>
<path d="M0 28C0 12.536 12.536 0 28 0H141V97H0V28Z" fill="#3350B8"/>
<path d="M141 0H198C212.912 0 225 12.0883 225 27V97H141V0Z" fill="#FFC000"/>
<path d="M165.776 96L141.5 119.809V96H165.776Z" fill="#FFC000" stroke="#FFC000"/>
<rect x="34" y="37" width="10" height="42" fill="white"/>
<rect x="55" y="48" width="10" height="31" fill="white"/>
<rect x="75" y="27" width="10" height="52" fill="white"/>
<rect x="95" y="18" width="10" height="61" fill="white"/>
<rect x="161" y="34" width="44" height="10" fill="white"/>
<rect x="161" y="54" width="44" height="10" fill="white"/>
<path d="M94 183V192H118C123.333 192.333 134 189.5 134 175.5C134 161.5 124.667 157.333 120 157H109C106.333 157.333 101 156.4 101 150C101 143.6 105.667 142 108 142H131V133H109C100.5 133 91 136.5 91 151C91 162.6 101 166.5 106 167H118C120 167.167 124 169.1 124 175.5C124 181.9 118.333 183.167 115.5 183H94Z" fill="white" stroke="white"/>
<rect x="107" y="189" width="11" height="12" fill="white"/>
<rect x="107" y="123" width="11" height="12" fill="white"/>
</svg>
