<svg width="225" height="225" viewBox="0 0 225 225" fill="none" xmlns="http://www.w3.org/2000/svg">
<rect width="225" height="225" rx="28" fill="#7D56F0"/>
<path d="M53 86C53 84.3431 54.3431 83 56 83H80C81.6569 83 83 84.3431 83 86V177C83 178.657 81.6569 180 80 180H56C54.3431 180 53 178.657 53 177V86Z" fill="white"/>
<path d="M99 47C99 45.3431 100.343 44 102 44H126C127.657 44 129 45.3431 129 47V177C129 178.657 127.657 180 126 180H102C100.343 180 99 178.657 99 177V47Z" fill="white"/>
<path d="M144 47C144 45.3431 145.343 44 147 44H171C172.657 44 174 45.3431 174 47V177C174 178.657 172.657 180 171 180H147C145.343 180 144 178.657 144 177V47Z" fill="white"/>
</svg>
